<?xml version="1.0" encoding="utf-8"?>
<!-- Generator: Adobe Illustrator 16.0.0, SVG Export Plug-In . SVG Version: 6.00 Build 0)  -->
<!DOCTYPE svg PUBLIC "-//W3C//DTD SVG 1.1//EN" "http://www.w3.org/Graphics/SVG/1.1/DTD/svg11.dtd">
<svg version="1.1" id="Layer_1" xmlns="http://www.w3.org/2000/svg" xmlns:xlink="http://www.w3.org/1999/xlink" x="0px" y="0px"
	 width="612px" height="792px" viewBox="0 0 612 792" enable-background="new 0 0 612 792" xml:space="preserve">
<g>
	<g>
		<path fill="#E13C2B" d="M279.061,665.421c-29.683-2.284-58.058-9.77-85.378-21.452c-1.787-1.981-0.037-3.15,1.102-4.322
			c2.5-2.568,4.906-5.3,7.739-7.451c1.934-1.471,4.525-2.072,6.822-3.062c0.165,0.138,0.354,0.198,0.569,0.182
			c0.294,0.141,0.589,0.28,0.883,0.422c31.069,12.369,63.38,17.763,96.741,16.932c30.791-0.768,60.424-7.162,88.893-18.93
			c1.033,0.628,2.162,1.141,3.084,1.902c4.629,3.833,9.204,7.73,13.8,11.606c-9.632,3.954-19.097,8.39-28.927,11.762
			c-20.453,7.017-41.592,10.967-63.152,12.66c-1.102,0.086-2.158,0.709-3.235,1.082c-8.25,0-16.5,0-24.75,0
			C288.52,666.307,283.79,665.863,279.061,665.421z"/>
		<path fill="#E3D893" d="M279.061,665.421c4.729,0.442,9.459,0.886,14.189,1.329c-4.5,0-9,0-13.5,0
			C279.52,666.307,279.29,665.863,279.061,665.421z"/>
		<path fill="#201B17" d="M188.107,644.175c-3.314-0.245-4.342-2.378-4.394-5.315c0.952-2.479,1.801-5.003,2.88-7.427
			c1.468-3.294,3.111-6.51,4.68-9.759c3.756,0.684,6.87-0.596,9.93-3.086c-0.814-0.47-1.339-0.775-1.866-1.077
			c-11.582-6.629-23.915-12.229-34.625-20.051C87.909,541.369,53.135,465.791,66.106,371.323
			c10.049-73.184,49.661-128.939,113.052-166.466c60.196-35.636,124.816-42.559,191.86-22.825
			C477.39,213.343,546.992,315.27,537.737,425.726c-4.282,51.107-24.052,95.757-57.881,134.181
			c-21.243,24.127-46.635,42.848-75.519,56.879c-0.724-0.167-1.509-0.206-2.161-0.521c-12.221-5.901-24.268-12.194-36.68-17.663
			c-11.821-5.208-23.999-9.61-36.063-14.255c-3.249-1.252-6.709-1.954-9.959-3.203c-0.939-0.362-1.487-1.752-2.216-2.671
			c0.738-0.556,1.396-1.361,2.228-1.63c12.229-3.914,24.438-7.906,36.75-11.545c5.206-1.538,9.902-0.672,13.599,4.204
			c4.83,6.375,12.138,8.522,19.61,8.474c10.76-0.069,21.348-1.895,31.373-6.264c4.681-2.04,9.598-3.531,14.313-5.498
			c3.092-1.287,6.014-2.979,9.202-4.584c-5.406-1.768-10.247-3.368-15.099-4.934c-19.517-6.296-38.777-7.826-57.549,2.699
			c-2.048,1.147-4.683,1.248-7.045,1.836c-0.263-0.632-0.524-1.261-0.787-1.892c3.942-2.408,7.748-5.084,11.854-7.169
			c9.076-4.606,18.566-8.252,26.867-14.521c3.826-2.891,9.346-3.801,14.258-4.865c2.173-0.471,5.191,0.257,7.062,1.547
			c9.539,6.574,19.191,4.841,27.805-0.675c9.287-5.949,17.873-13.092,24.088-22.656c1.868-2.874,5.092-4.868,7.69-7.269
			c0.717-0.661,1.421-1.334,2.819-2.65c-12.592-0.151-23.995,0.19-35.187,3.248c-8.831,2.412-16.241,6.856-21.925,14.142
			c-2.066,2.65-4.3,5.222-6.763,7.497c-2.404,2.223-5.218,3.971-9.676,3.455c1.312-1.484,1.938-2.636,2.907-3.222
			c7.566-4.578,12.793-11.396,17.852-18.387c6.796-9.392,15.021-17.576,19.538-28.843c2.314-5.771,7.543-11.844,16.115-11.105
			c4.219,0.363,7.679-1.767,10.373-5.062c3.899-4.77,9.02-8.477,11.285-14.659c2.557-6.976,6.373-13.521,8.539-20.593
			c1.492-4.871,3.646-8.913,7.07-12.486c1.021-1.066,1.849-2.32,2.764-3.487c-2.222-0.189-3.962,0.117-5.422,0.929
			c-6.626,3.683-13.154,7.534-19.763,11.252c-1.25,0.703-2.688,1.071-4.04,1.596c0.501-0.664,0.894-1.466,1.521-1.975
			c11.774-9.544,19.211-32.201,10.26-49.069c-0.737-1.389-1.207-2.92-1.8-4.385c1.053-5.668,2.624-11.299,3.036-17.014
			c0.604-8.407,0.229-16.88,0.59-25.312c0.144-3.379,1.129-6.723,1.73-10.083c-0.316-0.161-0.636-0.322-0.953-0.483
			c-10.302,9.877-19.097,20.724-21.835,35.468c-3.34-1.276-6.68-2.551-10.02-3.827c-0.211-0.419-0.422-0.839-0.632-1.26
			c-0.071-0.177-0.202-0.258-0.395-0.243c-1.033-3.179-2.113-6.344-3.09-9.541c-1.907-6.25-4.404-12.478-0.859-18.992
			c3.414-6.272,4.128-13.412,2.843-19.897c-1.477-7.451-5.044-14.566-8.265-21.569c-3.069-6.679-7.084-12.932-7.815-20.499
			c-0.082-0.85-0.736-1.646-1.125-2.467c-0.338,0.023-0.676,0.045-1.015,0.068c-1.11,7.104-2.656,14.173-3.211,21.32
			c-0.556,7.169-0.122,14.415-0.122,21.77c-4.238-3.888-8.562-7.853-12.885-11.818c5.272,7.315,11.172,13.906,16.417,20.982
			c3.738,5.045,6.672,10.7,9.769,16.193c0.459,0.816-0.164,2.244-0.287,3.388c-1.042-0.45-2.555-0.61-3.042-1.402
			c-1.889-3.054-3.8-6.177-5.061-9.518c-2.875-7.615-8.1-12.642-15.461-15.865c-10.221-4.476-20.539-4.3-30.997-1.185
			c-2.37,0.706-4.689,1.586-7.034,2.387c0.086,0.305,0.171,0.61,0.255,0.916c7.495-0.01,13.279,3.533,18.729,8.29
			c5.633,4.918,11.551,9.55,17.638,13.898c4.929,3.521,10.526,4.937,16.729,3.559c1.445-0.322,3.463,0.392,4.777,1.278
			c6.625,4.471,9.756,11.042,10.671,18.814l0.002-0.002c-0.271,0.077-0.538,0.154-0.809,0.231
			c-12.334-4.397-25.213-4.282-37.999-4.148c-20.488,0.214-40.973,0.96-61.459,1.435c-4.561,0.105-9.126,0.015-13.702,0.015
			c0-7.049,0.265-13.044-0.104-19.001c-0.2-3.256,1.062-4.534,3.89-5.092c6.854-1.352,13.714-2.682,20.541-4.161
			c0.986-0.214,2.479-1.101,2.593-1.85c0.647-4.268,0.947-8.589,1.375-12.983c-1.238-0.156-1.848-0.313-2.451-0.299
			c-9.848,0.243-19.695,0.782-29.54,0.71c-20.98-0.152-41.958-0.8-62.938-0.877c-9.774-0.036-9.351-2.307-10.983,9.673
			c-0.354,2.604,0.469,3.542,2.897,4.067c7.313,1.583,14.577,3.4,21.877,5.054c2.667,0.604,4.031,2.016,4.073,4.864
			c0.223,14.731,0.501,29.462,0.825,44.191c0.053,2.439-1.479,2.527-3.18,2.533c-29.991,0.098-59.982,0.166-89.973,0.314
			c-2.858,0.015-3.932-0.968-3.873-3.899c0.207-10.242,0.223-20.488,0.283-30.732c0.032-5.566,0.006-11.133,0.006-16.707
			c0.894-0.202,1.363-0.347,1.844-0.41c5.572-0.735,11.138-1.535,16.722-2.166c11.459-1.297,11.883-1.764,11.089-13.479
			c-0.048-0.704-0.216-1.398-0.347-2.216c-8.314,0-16.398,0-24.481,0c2.04-2.627,4.08-5.255,6.12-7.882
			c-0.302-0.321-0.605-0.641-0.908-0.961c-5.968,1.081-12.05,1.753-17.866,3.379c-4.343,1.213-8.34,3.657-12.492,5.554
			c-0.504,0.187-1.007,0.374-1.51,0.561c-0.731,0.015-1.463,0.03-2.194,0.046c-1.062,0.007-2.125,0.015-3.187,0.022
			c0.062-1.021-0.211-2.229,0.238-3.035c4.614-8.268,10.887-15.05,18.038-21.285c7.631-6.653,8.921-7.233,17.718-2.384
			c0.216,0.12,0.417,0.272,0.645,0.362c13.312,5.213,25.698,3.001,36.799-5.474c3.6-2.748,7.131-4.804,11.473-5.78
			c1.767-0.396,3.413-1.33,5.114-2.02c-0.092-0.479-0.184-0.959-0.276-1.438c-15.765-5.059-31.829-5.042-48.223-1.903
			c4.981-4.837,9.832-9.05,17.284-9.043c15.879,0.013,30.599-3.153,40.77-17.034c2.983-4.07,5.866-8.159,6.68-12.94
			c-5.84,1.93-11.411,3.972-17.098,5.607c-10.157,2.922-20.486,5.373-28.757,12.57c-2.21,1.923-4.365,3.911-6.581,5.827
			c-5.906,5.108-11.783,10.252-17.773,15.26c-2.686,2.245-5.573,4.261-8.459,6.249c-1.024,0.706-2.317,1.019-3.488,1.512
			c-0.333-0.436-0.666-0.87-0.999-1.306c1.523-1.797,2.91-3.74,4.608-5.354c1.871-1.777,4.254-3.038,6.021-4.897
			c6.926-7.292,10.384-16.224,12.179-26.001c0.887-4.833,2.455-9.542,3.854-14.832c-2.679,0.762-5.518,1.473-8.293,2.378
			c-8.063,2.631-12.906,9.075-16.771,15.858c-3.485,6.115-6.246,13.163-3.896,20.406c2.201,6.783,0.913,12.7-2.947,18.079
			c-4.5,6.269-9.654,12.062-14.352,18.196c-2.847,3.718-5.365,7.688-8.031,11.544c-2.069,0.063-4.138,0.127-6.207,0.19
			c5.662-18.126,0.038-38.314-13.004-45.41c-0.308,1.104-0.659,2.097-0.859,3.119c-1.675,8.54-3.392,17.072-4.952,25.634
			c-0.914,5.019-1.565,10.084-2.335,15.128c-2.962,0.194-5.924,0.405-8.888,0.578c-6.546,0.382-8.251,2.313-7.917,9.04
			c0.05,0.996,0.237,1.989,0.23,2.983c-0.017,2.278,1.148,3.376,3.326,3.668c7.126,0.956,14.229,2.165,21.383,2.799
			c2.419,0.214,3.008,1.103,3.14,3.065c0.342,5.098,0.973,10.195,0.97,15.292c-0.011,20.7-0.113,41.401-0.386,62.1
			c-0.186,14.076-0.752,28.147-1.043,42.224c-0.053,2.529-0.939,3.73-3.51,3.482c0-2.771,0-5.541,0-8.312
			c-0.452-0.012-0.905-0.021-1.357-0.031c0,2.845,0,5.69,0,8.538c-1.698,0.229-3.647,2.149-4.881-0.729
			c-0.286-1.579-0.514-3.172-0.866-4.735c-2.874-12.753-4.376-25.559-2.03-38.604c1.219-6.779,1.457-7.087,8.078-8.873
			c0.993-0.268,2.261-1.903,2.298-2.945c0.263-7.363,0.244-14.736,0.282-22.105c0.001-0.397-0.305-0.796-0.418-1.072
			c-9.046,7.14-7.64,18.581-11.817,27.811c-0.793-1.247-1.251-2.411-1.173-3.538c1.054-15.17,3.579-30.166,10.439-43.769
			c3.959-7.851,2.382-15.236,1.605-22.938c-0.087-0.866-1.4-1.609-2.25-2.523c0,4.593,0.679,8.452-0.125,11.973
			c-2.605,11.4-5.752,22.676-8.699,33.998c-0.514,1.976-1.073,3.939-1.61,5.908c-0.313,0.037-0.627,0.073-0.94,0.11
			c-1.927-17.678-12.869-30.678-22.256-44.647c-0.877,1.131-1.339,2.125-1.48,3.162c-1.077,7.916-2.322,15.817-3.07,23.766
			c-1.049,11.132,0.404,21.667,8.89,30.049c0.264,0.261,0.465,0.586,0.693,0.884c2.92,3.802,6.229,6.979,11.116,8.253
			c1.246,0.325,2.416,1.722,3.201,2.905c3.632,5.474,2.032,11.839,2.921,17.792c1.498,10.025,3.544,19.971,5.36,29.948
			c-2.129,2.631-4.716,2.264-7.418,1.133c-2.533-6.769-7.701-11.397-13.508-14.998c-6.951-4.312-14.449-7.739-22.699-12.068
			c1.208,3.122,2.508,5.378,2.94,7.788c2,11.131,6.803,21.143,12.376,30.763c6.299,10.874,14.733,18.884,28.519,18.63
			c1.571-0.027,3.374,0.847,4.708,1.804c4.027,2.89,7.924,5.969,11.777,9.09c2.283,1.85,4.853,3.596,6.491,5.946
			c6.468,9.286,13.991,17.479,22.971,24.394c3.059,2.354,5.663,5.303,8.892,8.377c-6.01,1.357-8.688,0.102-12.354-5.931
			c-5.694-9.371-14.148-14.771-24.286-18.268c-13.062-4.504-26.264-3.93-39.577-1.884c-0.858,0.132-1.648,0.712-2.765,1.216
			c0.681,0.758,0.926,1.26,1.317,1.435c8.259,3.677,14.814,9.643,21.263,15.758c6.904,6.546,13.823,12.788,23.773,14.753
			c9.117,1.8,17.677,1.955,26.1-2.646c1.879-1.026,5.098-1.302,6.948-0.393c8.5,4.172,16.74,8.875,25.055,13.421
			c1.326,0.726,2.556,1.627,3.831,2.446c-1.299,1.102-2.429,1.345-3.57,1.472c-9.537,1.065-19.158,1.636-28.589,3.291
			c-9.428,1.654-18.08,6.903-28.058,6.401c-0.408-0.021-0.854,0.702-1.959,1.677c3.038,1.386,5.543,2.525,8.045,3.674
			c8.716,4.002,16.607,9.979,26.501,11.16c6.039,0.722,12.099,1.968,18.133,1.878c8.595-0.13,15.054-4.779,20.173-11.581
			c1.803-2.395,4.25-5.872,6.565-6.003c5.462-0.309,11.287,0.283,16.486,1.98c10.056,3.28,19.786,7.564,29.642,11.453
			c4.467,1.763,8.914,3.573,13.37,5.362c0.007,0.414,0.014,0.829,0.021,1.244c-1.655,0.959-3.207,2.236-4.985,2.819
			c-6.747,2.216-13.756,3.734-20.32,6.378c-14.452,5.816-28.72,12.096-43.011,18.309c-12.221,5.313-24.387,10.756-36.52,16.269
			c-1.279,0.579-2.53,1.822-3.18,3.077C190.645,631.682,186.71,637.143,188.107,644.175z M324.77,214.809
			c0.271,0.616,0.442,1.302,0.825,1.838c3.247,4.558,6.464,9.139,9.819,13.616c6.556,8.746,15.408,13.96,26.143,15.234
			c5.99,0.711,11.373,1.19,16.504,5.373c6.208,5.061,13.597,8.678,20.499,12.874c0.835,0.508,1.839,0.739,2.893,1.148
			c-3.515,3.375-5.125,1.403-6.627,0.133c-5.74-4.85-12.023-8.575-19.615-9.472c-12.833-1.515-22.538,5.746-32.618,11.884
			c-0.068,0.042,0.052,0.399,0.086,0.621c2.503,0,5.109-0.478,7.458,0.099c5.035,1.235,10.115,2.604,14.856,4.656
			c9.955,4.312,19.671,3.575,28.651-1.732c3.735-2.207,7.762-1.47,9.938-0.53c5.882,2.541,10.957,6.946,16.355,10.605
			c0.882,0.598,1.783,1.166,2.676,1.747c-0.736-2.261-1.963-3.819-3.183-5.384c-3.822-4.912-6.88-9.926-5.94-16.73
			c0.354-2.583-0.815-5.652-2.039-8.131c-4.933-9.999-12.41-17.771-21.722-23.861c-2.827-1.849-5.463-3.993-8.187-6.001
			c-0.347,0.222-0.693,0.444-1.04,0.667c3.673,10.259,7.346,20.518,11.02,30.777c-0.191,0.255-0.385,0.51-0.575,0.765
			c-4.826-2.765-9.628-5.571-14.486-8.277c-2.8-1.56-4.725-3.656-6.245-6.598c-4.21-8.144-10.373-14.381-19.436-17.057
			C342.127,220.519,332.916,219.707,324.77,214.809z"/>
		<path fill="#E13C2B" d="M191.273,621.674c-1.568,3.249-3.212,6.465-4.68,9.759c-1.079,2.423-1.928,4.948-2.88,7.427
			c-8.947-4.926-18.212-9.354-26.787-14.858c-37.982-24.378-67.882-56.463-89.181-96.249
			c-24.092-45.004-33.949-93.088-29.579-144.019c3.685-42.932,17.185-82.59,41.016-118.409
			c38.315-57.591,91.263-95.004,158.431-111.697c50.519-12.554,100.633-10.177,149.906,6.621
			c49.167,16.763,89.919,45.691,122.149,86.4c26.876,33.946,44.278,72.369,51.562,115.04c9.236,54.13,2.265,106.271-21.579,155.873
			c-20.094,41.799-49.454,75.813-87.729,101.983c-9.255,6.327-19.188,11.659-28.811,17.449c-3.854-4.979-7.727-9.939-11.496-14.979
			c-0.192-0.256,0.493-1.17,0.77-1.777c34.67-17.618,63.666-41.93,86.684-73.335c29.938-40.852,45.507-86.661,46.362-137.203
			c0.825-48.723-12.269-93.65-39.009-134.516c-13.086-19.999-28.659-37.788-47.123-52.956
			c-54.097-44.442-116.224-63.163-185.662-55.853c-58.26,6.133-108.253,30.649-149.156,72.677
			c-41.74,42.888-64.336,94.566-67.823,154.316c-1.741,29.83,2.213,59.092,11.83,87.448c18.056,53.246,50.909,95.118,97.74,126.042
			C174.314,612.194,182.913,616.754,191.273,621.674z"/>
		<path fill="#E3D893" d="M412.387,620.235c-0.275,0.607-0.962,1.521-0.77,1.777c3.771,5.039,7.644,10,11.496,14.979
			c0.199,1.759,0.396,3.518,0.645,5.706c-1.594,0-2.774,0-3.956,0c-12.608-9.032-25.146-18.171-37.872-27.037
			c-4.326-3.015-9.131-5.345-13.719-7.988c-1.755-0.556-3.51-1.11-5.265-1.666c-0.76-0.588-1.441-1.336-2.288-1.737
			c-10.908-5.157-21.85-10.25-32.76-15.399c-4.716-2.226-9.443-4.437-14.056-6.861c-3.519-1.852-6.938-1.662-10.421-0.201
			c-6.774,2.842-13.546,5.689-20.286,8.609c-9.825,4.258-19.639,8.545-29.411,12.925c-1.211,0.542-2.131,1.732-3.188,2.624
			c-0.002,0.002,0.081-0.067,0.081-0.067c-0.818,0.145-1.731,0.103-2.44,0.462c-9.515,4.819-19.03,9.642-28.466,14.613
			c-1.61,0.849-2.847,2.403-4.256,3.634c-3.595-0.597-5.208,1.486-6.111,4.526c-2.297,0.989-4.889,1.592-6.822,3.062
			c-2.833,2.151-5.239,4.883-7.739,7.452c-1.139,1.171-2.889,2.34-1.102,4.321c-1.859,0.068-3.717,0.138-5.576,0.206
			c-1.396-7.031,2.538-12.493,5.495-18.195c0.65-1.256,1.901-2.498,3.18-3.078c12.133-5.513,24.299-10.954,36.52-16.269
			c14.291-6.213,28.559-12.491,43.011-18.309c6.564-2.644,13.574-4.162,20.32-6.378c1.778-0.583,3.33-1.86,4.985-2.819
			c-0.007-0.415-0.014-0.83-0.021-1.244c-4.456-1.789-8.903-3.601-13.37-5.361c-9.856-3.89-19.586-8.174-29.642-11.454
			c-5.199-1.697-11.024-2.289-16.486-1.98c-2.314,0.131-4.762,3.608-6.565,6.003c-5.12,6.802-11.579,11.451-20.173,11.581
			c-6.034,0.09-12.094-1.156-18.133-1.878c-9.895-1.183-17.786-7.158-26.501-11.16c-2.501-1.147-5.007-2.288-8.045-3.674
			c1.106-0.975,1.552-1.697,1.959-1.677c9.979,0.502,18.63-4.747,28.058-6.401c9.431-1.655,19.052-2.226,28.589-3.291
			c1.142-0.127,2.271-0.37,3.57-1.472c-1.275-0.819-2.505-1.721-3.831-2.446c-8.314-4.546-16.555-9.249-25.055-13.421
			c-1.851-0.909-5.069-0.635-6.948,0.394c-8.422,4.601-16.982,4.444-26.1,2.646c-9.951-1.965-16.869-8.207-23.773-14.753
			c-6.449-6.115-13.003-12.081-21.263-15.758c-0.392-0.174-0.636-0.676-1.317-1.435c1.116-0.504,1.906-1.084,2.765-1.216
			c13.313-2.046,26.516-2.62,39.577,1.884c10.138,3.496,18.592,8.896,24.286,18.268c3.666,6.032,6.344,7.288,12.354,5.931
			c-3.229-3.073-5.833-6.021-8.892-8.377c-8.98-6.915-16.503-15.105-22.971-24.393c-1.638-2.353-4.208-4.099-6.491-5.947
			c-3.854-3.121-7.75-6.2-11.777-9.09c-1.335-0.957-3.137-1.831-4.708-1.803c-13.785,0.254-22.22-7.757-28.519-18.631
			c-5.573-9.619-10.376-19.632-12.376-30.763c-0.433-2.41-1.732-4.666-2.94-7.788c8.25,4.329,15.749,7.758,22.699,12.068
			c5.807,3.601,10.975,8.229,13.507,14.998c-3.351,1.506-6.701,3.011-10.051,4.517c-3.469,4.694-2.053,9.99-2.361,15.217
			c6.346,0,12.2,0.091,18.05-0.046c2.168-0.05,3.329,0.312,3.907,2.751c1.219,5.138,6.111,7.074,9.708,10.107
			c0.228,0.191,1.027-0.293,1.72-0.514c-2.045-4.211-3.959-8.15-6.145-12.652c3.829-0.28,6.626-0.484,9.407-0.688
			c1.432,13.298,5.558,23.767,12.401,31.75c15.403,17.972,21.001,22.945,24.864,21.878c-0.531-1.823-0.718-3.858-1.665-5.439
			c-2.17-3.625-4.85-6.943-7.075-10.539c-6.585-10.643-8.771-22.188-6.35-34.466c0.225-1.14,2.283-2.704,3.507-2.719
			c5.192-0.063,10.397,0.304,15.582,0.719c0.862,0.069,2.109,0.999,2.387,1.803c2.845,8.246,2.607,16.867,2.297,25.372
			c-0.136,3.738-1.282,7.892-3.279,11.021c-4.927,7.716-2.727,12.096,2.211,18.819c3.857,5.253,9.65,9.336,15.183,13.047
			c7.829,5.252,16.199,9.702,24.37,14.439c1.128,0.651,2.442,0.987,3.673,1.462c6.765,2.607,13.532,5.213,20.299,7.819
			c0.242-0.445,0.484-0.893,0.728-1.339c-1.729-2.759-3.891-4.879-7.42-5.783c-12.488-3.202-21.534-10.86-26.291-22.696
			c-3.051-7.592-5.45-15.672-6.561-23.75c-1.054-7.665-0.118-15.614,0.137-23.433c0.03-0.933,1.281-1.823,1.966-2.733
			c0.75,0.744,1.612,1.405,2.228,2.247c1.45,1.989,2.583,4.238,4.197,6.071c7.064,8.025,14.678,15.607,21.278,23.992
			c6.677,8.483,11.221,18.106,10.107,29.479c-0.158,1.606-0.052,3.252,0.068,4.869c0.347,4.656,1.685,8.906,5.854,11.569
			c4.289,2.738,8.507,5.729,13.124,7.781c6.94,3.088,14.123,5.703,21.368,7.993c2.539,0.802,5.81,0.745,8.329-0.123
			c7.19-2.479,14.272-5.349,21.182-8.532c3.329-1.534,6.438-3.832,9.161-6.316c2.804-2.56,3.871-5.975,2.404-9.879
			c-5.347-14.229-0.947-26.889,6.467-39.012c0.312-0.508,1.188-0.946,1.804-0.951c7.585-0.064,15.171-0.042,23.099-0.042
			c-0.662,11.026-3.363,21.024-8.074,30.507c-2.378,4.783-5.978,8.145-10.999,10.181c-2.49,1.01-4.902,2.521-6.914,4.297
			c-1.449,1.279-2.883,3.26-1.032,5.642c0.562-0.164,1.057-0.228,1.47-0.441c8.507-4.418,16.824-9.258,25.561-13.162
			c7.22-3.227,13.686-7.354,18.933-13.087c4.473-4.885,8.845-10.224,5.736-17.799c-0.544-1.325-0.592-2.854-0.895-4.41
			c4.755,0,9.223,0,14.02,0c-4.307,5.561-8.312,10.729-12.315,15.9c0.393,0.459,0.784,0.917,1.178,1.375
			c1.39-0.769,2.981-1.311,4.131-2.346c3.75-3.378,7.523-6.765,10.947-10.463c6.022-6.506,12.015-13.065,17.612-19.935
			c5.823-7.143,10.185-15.125,11.374-24.5c0.643-5.058-0.419-6.603-4.706-9.524c-6.2-4.228-9.819-10.266-11.313-17.562
			c7.169-1.166,13.878-2.258,20.693-3.367c1.032,8.13-4.265,15.831-1.693,24.056c0.979-1.146,1.595-2.343,1.957-3.609
			c1.99-6.961,3.87-13.953,5.91-20.899c0.377-1.285,1.313-2.405,1.994-3.601c0.328,0.162,0.657,0.322,0.987,0.484
			c-0.106,2.012-0.213,4.023-0.354,6.695c1.19-0.825,1.688-1.025,1.977-1.39c3.403-4.298,6.785-8.611,10.117-12.965
			c0.129-0.167-0.304-0.764-0.475-1.159c1.73-1.373,3.464-2.746,5.195-4.118c1.352-0.523,2.79-0.893,4.04-1.596
			c6.607-3.718,13.138-7.569,19.764-11.252c1.46-0.812,3.199-1.117,5.421-0.929c-0.915,1.167-1.741,2.421-2.764,3.487
			c-3.426,3.574-5.578,7.616-7.07,12.487c-2.166,7.069-5.982,13.616-8.539,20.592c-2.267,6.184-7.386,9.891-11.285,14.66
			c-2.694,3.295-6.154,5.425-10.373,5.062c-8.572-0.737-13.801,5.335-16.115,11.106c-4.518,11.266-12.742,19.45-19.538,28.842
			c-5.059,6.991-10.284,13.809-17.852,18.387c-0.969,0.586-1.597,1.736-2.907,3.222c4.458,0.516,7.271-1.232,9.676-3.455
			c2.463-2.275,4.695-4.847,6.764-7.496c5.683-7.284,13.093-11.729,21.924-14.143c11.19-3.058,22.595-3.398,35.187-3.248
			c-1.398,1.316-2.104,1.989-2.818,2.65c-2.601,2.399-5.823,4.395-7.691,7.269c-6.215,9.564-14.801,16.707-24.088,22.656
			c-8.612,5.516-18.265,7.249-27.804,0.675c-1.871-1.29-4.891-2.018-7.062-1.547c-4.912,1.065-10.432,1.977-14.258,4.865
			c-8.301,6.27-17.791,9.914-26.867,14.521c-4.105,2.085-7.912,4.762-11.854,7.169c0.262,0.631,0.523,1.261,0.786,1.892
			c2.362-0.587,4.997-0.688,7.046-1.835c18.771-10.526,38.031-8.996,57.548-2.7c4.852,1.564,9.691,3.166,15.099,4.934
			c-3.188,1.605-6.11,3.297-9.202,4.584c-4.717,1.968-9.634,3.458-14.313,5.498c-10.025,4.369-20.613,6.193-31.373,6.265
			c-7.474,0.049-14.78-2.1-19.61-8.475c-3.695-4.876-8.393-5.742-13.599-4.204c-12.312,3.64-24.521,7.631-36.75,11.545
			c-0.83,0.269-1.488,1.074-2.228,1.63c0.729,0.92,1.275,2.309,2.216,2.672c3.25,1.249,6.711,1.95,9.959,3.203
			c12.064,4.644,24.242,9.047,36.063,14.255c12.412,5.468,24.459,11.761,36.68,17.663c0.652,0.314,1.438,0.354,2.161,0.521
			C406.218,619.809,408.818,621.15,412.387,620.235z"/>
		<path fill="#201B17" d="M368.211,607.673c4.588,2.645,9.393,4.974,13.719,7.988c12.728,8.866,25.264,18.005,37.872,27.037
			c-2.163-0.484-4.326-0.97-6.486-1.452c-4.596-3.876-9.171-7.773-13.8-11.606c-0.922-0.763-2.051-1.274-3.084-1.902
			c-3.416-4.08-6.971-4.696-12.323-2.717c-43.366,16.041-87.833,19.214-133.039,9.602c-12.037-2.562-23.751-6.636-35.613-10.017
			c1.409-1.229,2.646-2.784,4.256-3.633c9.436-4.973,18.951-9.794,28.466-14.613c0.709-0.359,1.623-0.317,2.438-0.462
			c0.201,0.446,0.403,0.892,0.604,1.335c0.652,1.118,1.807,2.211,1.867,3.359c0.225,4.273,0.09,8.565,0.09,13.176
			c1.779,0,3.713,0,5.647,0c2.932,0.134,5.864,0.266,9.072,0.41c0.301-1.931,0.547-3.508,0.792-5.086
			c-0.282-0.32-0.564-0.641-0.846-0.961c-1.582,5.168-5.616,3.973-8.99,4.489c-0.772-2.16-1.544-4.319-2.316-6.479
			c0.423-0.397,0.847-0.796,1.27-1.193c2.272,0.759,4.544,1.517,6.647,2.22c0-1.344,0-3.354,0-4.687
			c-2.232,0.714-4.495,1.438-7.406,2.367c0.163-3.171,0.27-5.254,0.376-7.336c3.118,0,6.236,0,9.355,0
			c-0.03-0.55-0.06-1.1-0.09-1.648c-3.162,0.183-6.324,0.364-9.487,0.548c-1.971-0.035-3.941-0.07-5.912-0.105
			c-0.25-0.112-0.501-0.227-0.753-0.342c1.055-0.89,1.975-2.08,3.186-2.622c9.772-4.38,19.586-8.667,29.411-12.925
			c6.74-2.92,13.512-5.769,20.286-8.609c3.483-1.461,6.902-1.649,10.421,0.201c4.611,2.426,9.34,4.638,14.055,6.861
			c10.911,5.149,21.853,10.242,32.761,15.399c0.847,0.401,1.528,1.149,2.289,1.737c-1.797,0.853-4.667,1.319-5.144,2.646
			c-0.724,2.014,0.214,4.625,0.51,7.627c-1.961,1.442-2.801,3.823-0.297,6.649c1.611,1.819,5.421,1.611,7.98-0.414
			c2.519-1.991,2.266-4.221-0.451-7.918c0.421-2.435,0.65-4.267,1.111-6.039C366.764,608.155,367.672,607.963,368.211,607.673z
			 M285.819,606.068c-0.305,1.006-0.729,2.405-1.075,3.548c2.648-0.685,4.971-1.282,8.355-2.154
			c-1.751,6.16,2.125,11.945-3.322,16.23c3.134,0,6.137,0,9.072,0c-4.479-4.805-1.218-10.321-2.358-15.288
			c0.302-0.297,0.604-0.596,0.906-0.893c1.872,0.882,3.743,1.764,5.695,2.684c0-1.336,0-2.875,0-4.127
			C297.432,606.068,291.839,606.068,285.819,606.068z M281.116,610.443c0.34-0.081,0.68-0.162,1.02-0.244
			c-0.293-1.226-0.232-2.741-0.952-3.612c-1.471-1.78-7.359-0.774-8.902,1.293c-1.795,2.405-1.113,5.743,1.706,7.417
			c1.486,0.882,3.33,1.187,4.752,2.139c0.984,0.66,1.522,1.982,2.259,3.011c-1.159,0.758-2.464,2.295-3.449,2.11
			c-2.031-0.376-3.891-1.672-5.895-2.624c-0.441,1.825-0.585,3.753,2.306,3.991c1.725,0.144,3.794,0.523,5.138-0.226
			c1.75-0.976,3.876-2.847,4.092-4.552c0.211-1.663-1.528-3.834-2.895-5.346c-0.909-1.004-2.946-0.943-3.963-1.906
			c-0.919-0.868-1.136-2.479-1.663-3.762c1.47-0.072,3.022-0.458,4.379-0.101C279.892,608.254,280.438,609.602,281.116,610.443z
			 M336.247,616.381c-3.279-1.757-4.552-5.163-3.153-7.849c0.354-0.679,1.23-1.485,1.875-1.492c0.619-0.006,1.676,0.868,1.793,1.495
			c0.387,2.061,0.606,4.186,0.573,6.28c-0.067,4.255-2.274,7.255-6.411,8.951c7.74-0.144,12.518-8.35,9.164-14.663
			c-1.521-2.864-4.819-4.014-7.65-2.664c-2.68,1.274-3.995,4.914-2.657,7.71C331.057,616.819,333.16,617.369,336.247,616.381z
			 M347.697,608.186c-2.902,0.997-4.242,3.8-4.818,7.047c-0.581,3.274,0.025,6.699,3.125,8.089c1.828,0.817,5.021,0.351,6.751-0.809
			c2.38-1.596,2.326-4.809,0.657-7.043c-0.958-1.282-3.16-1.636-4.803-2.407c-0.346,0.445-0.689,0.892-1.035,1.337
			c3.97,0.599,3.697,3.304,3.344,5.716c-0.161,1.104-1.382,2.054-2.123,3.072c-0.768-0.965-2.21-1.946-2.183-2.889
			C346.726,616.342,347.278,612.396,347.697,608.186z M318.849,623.805c3.1,0,5.729,0,7.688,0c-0.472-1.944-1.19-3.742-1.288-5.572
			c-0.178-3.345-0.021-6.708,0.061-10.062c0.05-1.978-0.807-3.085-2.65-2.076c-1.749,0.958-3.173,2.512-4.741,3.801
			c0.107,0.184,0.215,0.366,0.322,0.551c1.094-0.217,2.188-0.434,3.731-0.737C320.584,614.414,323.917,619.565,318.849,623.805z
			 M250.519,622.941c0.031,0.391,0.061,0.78,0.091,1.174c0.93-0.165,1.86-0.33,2.79-0.495c-0.068-0.365-0.137-0.73-0.206-1.096
			C252.303,622.663,251.411,622.802,250.519,622.941z"/>
		<path fill="#FEFDFD" d="M215.457,624.605c11.862,3.38,23.576,7.454,35.613,10.016c45.206,9.613,89.671,6.439,133.039-9.602
			c5.354-1.979,8.907-1.363,12.323,2.717c-28.469,11.768-58.102,18.162-88.893,18.93c-33.36,0.831-65.671-4.562-96.741-16.932
			c-0.293-0.142-0.589-0.281-0.883-0.422c-0.215,0.018-0.404-0.044-0.569-0.182C210.249,626.093,211.862,624.01,215.457,624.605z"/>
		<path fill="#E3D893" d="M209.915,629.312c0.294,0.141,0.59,0.28,0.883,0.422C210.504,629.594,210.209,629.453,209.915,629.312z"/>
		<path fill="#FEFDFD" d="M479.972,425.354c-1.731,1.372-3.465,2.745-5.196,4.117c-0.662,0.337-1.34,0.646-1.983,1.016
			c-22.677,12.988-45.987,13.194-69.761,3.392c-1.04-0.429-2.485-1.401-2.605-2.277c-0.646-4.724-0.937-9.497-1.375-14.554
			c2.146,0.156,3.375,0.276,4.606,0.331c7.973,0.355,15.997,1.207,23.714-1.704c1.259-0.475,2.284-1.571,3.417-2.38
			c3.489-0.131,5.854-1.888,7.266-5.025c1.014-1.204,2.408-2.255,2.979-3.643c4.558-11.116,4.256-22.115-2.727-32.04
			c-2.423-3.444-6.511-6.376-10.47-7.948c-9.33-3.703-19.213-3.896-29.128-2.324c-3.109,0.494-4.364,1.793-4.275,5.183
			c0.575,21.821,1.052,43.646,1.317,65.473c0.188,15.473-0.026,30.948-0.007,46.423c0.003,2.932,0.262,5.862,0.41,8.947
			c2.984,0.213,5.457,0.389,7.93,0.565c1.097,0.164,2.19,0.438,3.292,0.475c5.865,0.2,11.732,0.343,17.6,0.505
			c1.968,4.766,2.29,9.626,1.217,14.682c-0.44,2.069-1.376,3.057-3.438,3.046c-5.733-0.032-11.486,0.232-17.196-0.146
			c-24.22-1.604-48.406-1.955-72.568,0.896c-3.179,0.375-6.4,0.361-10.685,0.586c0-4.292,0-8.106,0-11.921
			c0-2.187,1.021-3.195,3.229-3.775c6.514-1.708,12.901-3.896,19.426-5.561c3.426-0.873,4.226-2.966,4.128-6.011
			c-1.146-36.316-2.235-72.637-3.451-108.952c-0.272-8.162-2.055-9.823-10.151-11.044c-5.183-0.78-10.33-1.771-15.516-2.522
			c-2.536-0.367-3.687-1.397-3.505-4.149c0.179-2.718-0.174-5.471-0.294-8.209c0.163-1.224,0.326-2.448,0.467-3.501
			c7.069,0,14.003,0,21.219,0c0.054-1.038,0.146-2.133,0.159-3.229c0.079-5.741,0.097-11.482,0.222-17.221
			c0.08-3.661,1.315-6.559,5.355-7.468c6.444-1.45,12.887-2.918,19.303-4.489c1.073-0.263,2.011-1.087,3.01-1.651
			c-1.099-0.502-2.17-1.355-3.299-1.436c-2.479-0.178-4.995-0.102-7.478,0.107c-19.818,1.672-39.633,2.114-59.499,0.661
			c-6.742-0.493-13.551-0.078-20.329-0.078c1.012,0.707,2.146,1.02,3.286,1.307c5.565,1.402,11.118,2.853,16.7,4.181
			c5.078,1.208,7.646,4.303,7.712,9.546c0.213,16.973,0.438,33.946,0.726,50.918c0.039,2.287-1.115,3.14-3.1,3.323
			c-3.479,0.321-6.961,0.817-10.445,0.846c-21.366,0.179-42.734,0.354-64.102,0.306c-9.608-0.022-19.214-0.614-28.823-0.833
			c-2.593-0.059-3.532-1.228-3.532-3.668c-0.001-4.616-0.166-9.231-0.157-13.847c0.021-12.36,0.308-24.726,0.066-37.08
			c-0.128-6.562,1.907-9.386,8.498-10.129c6.451-0.728,12.887-1.605,19.315-2.517c0.679-0.096,1.263-0.857,1.891-1.309
			c-0.638-0.417-1.262-1.163-1.917-1.192c-2.617-0.117-5.269-0.238-7.863,0.047c-17.57,1.933-35.156,1.746-52.77,0.776
			c-8.972-0.495-17.962-0.681-26.947-0.884c-0.842-0.019-1.704,0.841-2.556,1.293c0.824,0.528,1.6,1.408,2.479,1.528
			c6.183,0.844,12.377,1.641,18.59,2.229c3.407,0.322,5.666,1.663,6.184,5.203c0.521,3.567,1.321,7.134,1.407,10.715
			c0.317,13.229,0.509,26.464,0.519,39.697c0.009,12.366-0.184,24.734-0.447,37.098c-0.315,14.812-0.799,29.619-1.208,44.353
			c-1.977,0.659-3.233,1.251-4.554,1.49c-6.628,1.201-13.278,2.28-19.905,3.486c-1.1,0.199-2.124,0.814-3.183,1.238
			c0.105,0.227,0.21,0.453,0.316,0.68c30.62,0,61.24,0,91.861,0c0.104-0.383,0.209-0.766,0.314-1.146
			c-1.709-0.514-3.387-1.247-5.133-1.498c-6.053-0.868-12.131-1.566-18.199-2.335c-5.713-0.725-6.668-1.409-6.729-7.255
			c-0.183-17.481-0.218-34.967-0.056-52.448c0.06-6.447,0.367-6.786,6.756-7.134c7.842-0.428,15.72-0.296,23.582-0.257
			c20.744,0.103,41.488,0.247,62.231,0.463c5.575,0.058,11.146,0.431,16.761,0.662c1.407,21,1.774,41.448-0.823,61.84
			c-0.14,1.096-1.892,2.608-3.102,2.842c-7.1,1.365-14.269,2.363-21.397,3.593c-1.395,0.24-2.709,0.95-4.061,1.443
			c0.069,0.406,0.139,0.812,0.208,1.221c1.001,0.071,2.007,0.248,3.001,0.194c4.366-0.235,8.728-0.77,13.092-0.777
			c18.107-0.031,36.217,0.087,54.325,0.15c0.162,2.196,0.324,4.394,0.497,6.726c-0.889,0.064-1.363,0.138-1.837,0.128
			c-12.739-0.266-25.48-0.812-38.216-0.724c-9.732,0.066-19.453,1.053-29.186,1.414c-8.541,0.317-9.281-0.58-8.514-8.829
			c0.08-0.871,0.151-1.742,0.232-2.611c0.224-2.42,1.358-3.684,3.958-4.04c7.047-0.964,14.04-2.337,21.091-3.259
			c2.701-0.354,3.952-1.233,4.026-4.093c0.313-11.986,0.914-23.967,1.124-35.952c0.073-4.182-0.677-8.375-1.112-13.234
			c-31.994,0-63.768,0-95.725,0c0,17.808,0,35.441,0,53.115c3.791,0.504,7.119,0.952,10.448,1.39
			c3.466,0.457,6.962,0.753,10.396,1.389c8.742,1.614,10.122,3.713,8.549,12.491c-0.065,0.369-0.202,0.731-0.224,1.103
			c-0.128,2.169-1.226,2.882-3.407,2.872c-8.466-0.037-16.938,0.312-25.398,0.12c-6.952-0.16-13.896-1.33-20.837-1.275
			c-17.104,0.135-34.205,0.72-51.308,1.115c-1.434,0.033-2.869,0.004-4.684,0.004c0-3.574,0-6.548,0-9.521
			c0.254-0.444,0.508-0.891,0.763-1.336c-0.572-0.614-1.145-1.229-1.716-1.846c3.35-1.506,6.7-3.011,10.051-4.517
			c2.703,1.131,5.289,1.498,7.418-1.132c0.619-0.271,1.237-0.538,1.857-0.808c1.234,2.879,3.183,0.959,4.881,0.729
			c0.452-0.064,0.905-0.131,1.358-0.195c2.571,0.248,3.457-0.953,3.51-3.482c0.292-14.074,0.858-28.146,1.043-42.224
			c0.272-20.698,0.375-41.399,0.386-62.1c0.002-5.097-0.628-10.194-0.97-15.292c-0.131-1.962-0.721-2.851-3.14-3.065
			c-7.154-0.634-14.256-1.843-21.383-2.799c-2.178-0.292-3.342-1.39-3.326-3.668c0.007-0.994-0.18-1.987-0.23-2.983
			c-0.334-6.727,1.371-8.658,7.917-9.04c2.964-0.173,5.925-0.384,8.888-0.577c7.05,0.51,14.1,1.019,21.15,1.528
			c2.069-0.063,4.138-0.126,6.207-0.19c1.508,0.294,3.016,0.588,4.523,0.881c1.062-0.007,2.124-0.015,3.185-0.022
			c0.731-0.016,1.463-0.031,2.196-0.046c0.503-0.187,1.006-0.374,1.51-0.561c1.89,0.4,3.794,1.2,5.667,1.13
			c6.5-0.244,12.988-0.789,19.48-1.22c8.083,0,16.167,0,24.481,0c0.131,0.817,0.299,1.512,0.347,2.216
			c0.793,11.715,0.37,12.181-11.089,13.479c-5.584,0.631-11.15,1.431-16.722,2.166c-0.481,0.063-0.951,0.208-1.844,0.41
			c0,5.574,0.026,11.141-0.006,16.707c-0.06,10.244-0.076,20.49-0.283,30.732c-0.059,2.932,1.014,3.914,3.873,3.899
			c29.99-0.148,59.981-0.217,89.973-0.314c1.701-0.006,3.233-0.094,3.18-2.533c-0.324-14.729-0.602-29.46-0.825-44.191
			c-0.042-2.849-1.406-4.26-4.073-4.864c-7.3-1.654-14.562-3.471-21.877-5.054c-2.428-0.525-3.252-1.463-2.897-4.067
			c1.633-11.98,1.209-9.709,10.983-9.673c20.98,0.078,41.957,0.725,62.938,0.877c9.845,0.072,19.692-0.467,29.54-0.71
			c0.604-0.015,1.213,0.143,2.451,0.299c-0.428,4.394-0.728,8.715-1.375,12.983c-0.113,0.749-1.605,1.636-2.593,1.85
			c-6.827,1.479-13.688,2.809-20.541,4.161c-2.825,0.558-4.09,1.836-3.89,5.092c0.368,5.957,0.104,11.952,0.104,19.001
			c4.576,0,9.143,0.09,13.702-0.015c20.486-0.475,40.971-1.221,61.459-1.435c12.786-0.134,25.665-0.25,37.999,4.147
			c0.131,0.137,0.264,0.273,0.395,0.411c0.138-0.214,0.274-0.428,0.414-0.642l-0.002,0.002c0.813-0.038,1.628-0.074,2.441-0.111
			c0.191-0.015,0.322,0.066,0.396,0.244c0.21,0.42,0.42,0.839,0.631,1.259c3.34,1.276,6.68,2.551,10.019,3.827
			c1.969,1.369,4.233,2.455,5.843,4.162c4.021,4.271,7.745,8.822,11.59,13.261c0.593,1.465,1.062,2.996,1.8,4.385
			c8.951,16.869,1.516,39.525-10.26,49.069C480.864,423.889,480.473,424.689,479.972,425.354z M406.777,424.04
			c-0.334,0.573-0.668,1.147-1.001,1.721c1.107,1.144,2.017,2.784,3.365,3.329c3.227,1.305,6.603,2.409,10.021,3.036
			c19.249,3.531,37.734,2.106,53.902-10.172c11.547-8.771,17.741-20.746,15.3-35.256c-2.731-16.226-13.09-26.82-28.654-32.072
			c-11.019-3.716-22.487-4.639-34.019-4.44c-19.608,0.338-39.211,1.197-58.817,1.288c-13.229,0.062-26.458-0.855-39.689-1.222
			c-1.259-0.035-2.539,0.741-3.81,1.14c1.123,0.717,2.164,1.813,3.385,2.076c3.413,0.736,6.906,1.087,10.356,1.663
			c11.108,1.852,14.923,6.281,15.353,17.604c0.914,24.092,1.974,48.178,2.76,72.274c0.411,12.61,0.443,25.236,0.51,37.856
			c0.033,6.533-1.35,8.602-7.487,10.785c-5.165,1.839-10.507,3.177-15.746,4.814c-1.272,0.398-2.449,1.11-3.672,1.677
			c0.095,0.428,0.188,0.854,0.282,1.278c1.987,0,3.999,0.199,5.959-0.031c18.544-2.179,37.138-2.357,55.759-1.504
			c8.855,0.406,17.706,0.935,26.564,1.233c0.842,0.028,1.724-1.179,2.588-1.812c-0.804-0.669-1.542-1.811-2.419-1.93
			c-5.068-0.686-10.159-1.257-15.261-1.631c-13.021-0.954-13.177-0.902-13.339-14.158c-0.461-37.85-0.637-75.704-1.272-113.552
			c-0.153-9.146,3.688-11.371,10.542-12.516c8.974-1.5,17.922-1.054,26.8,0.958c13.492,3.058,21.409,11.669,24.574,24.857
			c5.267,21.948-6.15,39.734-27.557,42.604C417.047,424.611,411.873,424.04,406.777,424.04z"/>
		<path fill="#FEFDFD" d="M412.387,620.235c-3.567,0.915-6.169-0.428-8.048-3.45c28.884-14.031,54.274-32.752,75.519-56.879
			c33.83-38.424,53.599-83.072,57.881-134.181c9.255-110.456-60.348-212.384-166.719-243.693
			c-67.044-19.734-131.665-12.812-191.86,22.825C115.768,242.384,76.155,298.14,66.106,371.323
			c-12.972,94.468,21.803,170.046,98.605,226.137c10.711,7.821,23.044,13.422,34.625,20.051c0.527,0.302,1.052,0.607,1.866,1.077
			c-3.06,2.49-6.174,3.77-9.93,3.086c-8.36-4.92-16.959-9.479-25.044-14.817c-46.831-30.924-79.685-72.796-97.74-126.042
			c-9.616-28.356-13.57-57.618-11.83-87.448c3.487-59.75,26.083-111.428,67.823-154.316c40.903-42.028,90.896-66.543,149.156-72.677
			c69.438-7.31,131.565,11.411,185.662,55.853c18.464,15.168,34.037,32.958,47.123,52.956
			c26.74,40.866,39.834,85.792,39.009,134.516c-0.855,50.542-16.426,96.353-46.362,137.203
			C476.053,578.307,447.057,602.617,412.387,620.235z"/>
		<path fill="#E3D893" d="M173.175,303.069c-1.508-0.293-3.016-0.587-4.523-0.881c2.666-3.856,5.185-7.826,8.031-11.544
			c4.697-6.134,9.852-11.927,14.352-18.196c3.86-5.379,5.148-11.295,2.947-18.079c-2.351-7.243,0.41-14.291,3.896-20.406
			c3.865-6.783,8.708-13.227,16.771-15.858c2.775-0.905,5.614-1.616,8.293-2.378c-1.399,5.291-2.967,9.999-3.854,14.832
			c-1.794,9.777-5.253,18.709-12.179,26.001c-1.767,1.859-4.15,3.12-6.021,4.897c-1.698,1.614-3.085,3.558-4.608,5.354
			c0.333,0.436,0.666,0.871,0.999,1.306c1.17-0.493,2.464-0.806,3.488-1.512c2.886-1.988,5.774-4.003,8.459-6.249
			c5.99-5.007,11.867-10.152,17.773-15.26c2.215-1.916,4.371-3.904,6.581-5.827c8.271-7.197,18.6-9.647,28.757-12.57
			c5.687-1.635,11.258-3.677,17.098-5.607c-0.814,4.781-3.697,8.87-6.68,12.94c-10.171,13.881-24.891,17.047-40.77,17.034
			c-7.452-0.007-12.303,4.206-17.284,9.043c16.394-3.139,32.458-3.155,48.223,1.903c0.093,0.479,0.184,0.959,0.276,1.438
			c-1.701,0.689-3.348,1.623-5.114,2.02c-4.341,0.976-7.873,3.032-11.473,5.78c-11.102,8.476-23.487,10.687-36.799,5.474
			c-0.228-0.089-0.429-0.242-0.645-0.362c-8.797-4.849-10.087-4.27-17.718,2.384c-7.151,6.234-13.423,13.017-18.038,21.285
			C172.964,300.839,173.237,302.048,173.175,303.069z"/>
		<path fill="#E3D893" d="M324.77,214.809c8.146,4.898,17.357,5.71,26.01,8.265c9.062,2.676,15.226,8.913,19.436,17.057
			c1.521,2.941,3.445,5.038,6.245,6.598c4.858,2.706,9.66,5.513,14.486,8.277c0.19-0.255,0.384-0.51,0.575-0.765
			c-3.674-10.259-7.347-20.518-11.02-30.777c0.347-0.222,0.693-0.445,1.04-0.667c2.724,2.008,5.358,4.152,8.187,6.001
			c9.312,6.09,16.789,13.862,21.722,23.861c1.224,2.479,2.395,5.548,2.039,8.131c-0.938,6.804,2.118,11.818,5.94,16.73
			c1.22,1.564,2.445,3.123,3.183,5.384c-0.893-0.581-1.794-1.149-2.675-1.747c-5.399-3.659-10.476-8.065-16.356-10.605
			c-2.176-0.939-6.201-1.676-9.937,0.53c-8.981,5.307-18.697,6.043-28.652,1.732c-4.741-2.053-9.821-3.421-14.856-4.656
			c-2.349-0.577-4.955-0.099-7.458-0.099c-0.033-0.222-0.154-0.579-0.086-0.621c10.08-6.138,19.785-13.399,32.618-11.884
			c7.592,0.896,13.875,4.622,19.615,9.472c1.502,1.27,3.113,3.242,6.627-0.133c-1.054-0.409-2.057-0.641-2.892-1.148
			c-6.903-4.196-14.291-7.813-20.499-12.874c-5.132-4.183-10.515-4.662-16.505-5.373c-10.733-1.274-19.587-6.488-26.143-15.234
			c-3.355-4.478-6.572-9.058-9.819-13.616C325.212,216.11,325.039,215.425,324.77,214.809z"/>
		<path fill="#E3D893" d="M461.477,347.173c-0.813,0.037-1.628,0.073-2.441,0.111c-0.915-7.772-4.046-14.343-10.671-18.814
			c-1.314-0.887-3.332-1.6-4.777-1.278c-6.201,1.378-11.8-0.038-16.728-3.559c-6.087-4.348-12.006-8.98-17.639-13.898
			c-5.449-4.757-11.233-8.3-18.729-8.29c-0.084-0.306-0.169-0.611-0.254-0.916c2.344-0.801,4.664-1.681,7.034-2.387
			c10.457-3.115,20.775-3.291,30.996,1.185c7.361,3.224,12.586,8.25,15.461,15.865c1.261,3.34,3.173,6.463,5.061,9.518
			c0.488,0.792,2,0.952,3.042,1.402c0.123-1.144,0.746-2.572,0.287-3.388c-3.097-5.493-6.029-11.148-9.769-16.193
			c-5.244-7.076-11.145-13.667-16.417-20.982c4.323,3.966,8.646,7.931,12.886,11.818c0-7.354-0.435-14.601,0.122-21.77
			c0.554-7.147,2.1-14.217,3.211-21.32c0.338-0.022,0.676-0.045,1.014-0.068c0.389,0.821,1.043,1.617,1.125,2.467
			c0.732,7.567,4.746,13.82,7.816,20.499c3.22,7.003,6.787,14.119,8.264,21.569c1.285,6.486,0.572,13.625-2.842,19.897
			c-3.545,6.515-1.048,12.742,0.858,18.992C459.362,340.829,460.443,343.994,461.477,347.173z"/>
		<path fill="#E3D893" d="M142.36,445.547c-0.62,0.27-1.238,0.537-1.857,0.807c-1.816-9.979-3.862-19.923-5.36-29.948
			c-0.889-5.953,0.711-12.318-2.921-17.792c-0.785-1.185-1.955-2.58-3.201-2.905c-4.886-1.273-8.196-4.451-11.116-8.253
			c-0.228-0.297-0.429-0.623-0.693-0.884c-8.486-8.381-9.939-18.917-8.89-30.049c0.749-7.948,1.993-15.85,3.07-23.766
			c0.141-1.038,0.604-2.031,1.48-3.162c9.388,13.969,20.329,26.97,22.256,44.647c0.313-0.037,0.627-0.073,0.94-0.11
			c0.538-1.969,1.096-3.932,1.61-5.908c2.947-11.322,6.094-22.598,8.699-33.998c0.805-3.521,0.125-7.379,0.125-11.973
			c0.851,0.914,2.163,1.657,2.25,2.523c0.777,7.702,2.354,15.087-1.605,22.938c-6.86,13.603-9.385,28.599-10.439,43.769
			c-0.078,1.127,0.379,2.291,1.173,3.538c4.178-9.23,2.771-20.671,11.817-27.811c0.114,0.276,0.42,0.675,0.418,1.072
			c-0.038,7.369-0.019,14.743-0.282,22.105c-0.037,1.042-1.305,2.678-2.298,2.945c-6.621,1.786-6.858,2.094-8.078,8.873
			c-2.346,13.046-0.844,25.852,2.03,38.604C141.846,442.375,142.074,443.968,142.36,445.547z"/>
		<path fill="#E3D893" d="M162.444,302.377c-7.05-0.509-14.101-1.018-21.15-1.528c0.77-5.045,1.421-10.11,2.335-15.129
			c1.56-8.562,3.276-17.094,4.952-25.634c0.2-1.022,0.551-2.015,0.859-3.119C162.482,264.063,168.106,284.251,162.444,302.377z"/>
		<path fill="#E3D893" d="M489.952,369.926c-3.844-4.439-7.567-8.99-11.59-13.261c-1.608-1.707-3.874-2.792-5.843-4.162
			c2.739-14.744,11.534-25.591,21.837-35.468c0.316,0.161,0.636,0.322,0.952,0.483c-0.603,3.36-1.588,6.703-1.73,10.083
			c-0.36,8.432,0.016,16.904-0.59,25.312C492.576,358.627,491.005,364.258,489.952,369.926z"/>
		<path fill="#E3D893" d="M205.212,302.351c-6.492,0.431-12.98,0.976-19.48,1.22c-1.872,0.07-3.777-0.729-5.667-1.13
			c4.152-1.896,8.149-4.34,12.492-5.554c5.816-1.625,11.898-2.298,17.866-3.379c0.303,0.32,0.605,0.64,0.908,0.961
			C209.292,297.096,207.252,299.723,205.212,302.351z"/>
		<path fill="#E3D893" d="M148.599,446.08c-0.453,0.064-0.906,0.131-1.358,0.195c0-2.848,0-5.693,0-8.538
			c0.452,0.01,0.905,0.021,1.357,0.031C148.599,440.539,148.599,443.311,148.599,446.08z"/>
		<path fill="#E3D893" d="M178.556,303.001c-0.732,0.015-1.465,0.03-2.196,0.046C177.092,303.031,177.824,303.016,178.556,303.001z"
			/>
		<path fill="#E3D893" d="M462.502,348.676c-0.211-0.419-0.421-0.838-0.631-1.259C462.08,347.837,462.291,348.256,462.502,348.676z"
			/>
		<path fill="#E3D893" d="M459.036,347.281c-0.139,0.214-0.276,0.428-0.414,0.642c-0.131-0.138-0.263-0.274-0.395-0.411
			C458.498,347.436,458.767,347.358,459.036,347.281z"/>
		<path fill="#201B17" d="M316.171,346.803c0.12,2.738,0.473,5.491,0.294,8.209c-0.182,2.751,0.969,3.782,3.505,4.149
			c5.186,0.752,10.333,1.742,15.516,2.522c8.098,1.221,9.879,2.882,10.151,11.044c1.217,36.315,2.306,72.634,3.451,108.952
			c0.098,3.045-0.702,5.138-4.128,6.011c-6.522,1.664-12.912,3.853-19.426,5.561c-2.21,0.58-3.229,1.59-3.229,3.775
			c0,3.813,0,7.629,0,11.921c4.283-0.225,7.506-0.211,10.685-0.586c24.162-2.852,48.35-2.501,72.568-0.896
			c5.71,0.379,11.464,0.113,17.196,0.146c2.062,0.011,2.996-0.977,3.438-3.046c1.073-5.056,0.751-9.916-1.217-14.683
			c2.025-12.126-4.267-30.716-13.136-36.099c2.936,5.842,0.472,10.321-1.064,14.946c-2.234,6.724-4.461,13.448-6.69,20.174
			c-2.473-0.178-4.944-0.354-7.93-0.565c-0.148-3.085-0.407-6.017-0.41-8.947c-0.021-15.475,0.195-30.95,0.007-46.423
			c-0.267-21.826-0.742-43.652-1.317-65.473c-0.089-3.389,1.166-4.689,4.275-5.183c9.915-1.573,19.798-1.379,29.128,2.324
			c3.959,1.572,8.047,4.504,10.47,7.948c6.981,9.925,7.283,20.924,2.727,32.04c-0.57,1.388-1.966,2.438-2.979,3.643
			c-0.145-1.04,0.099-2.592-0.495-3.038c-3.435-2.595-7.064-4.93-11.4-7.875c1.787,6.153,3.209,11.047,4.631,15.938
			c-1.133,0.809-2.158,1.905-3.417,2.38c-7.717,2.911-15.741,2.061-23.714,1.704c-1.231-0.055-2.46-0.175-4.606-0.331
			c0.438,5.058,0.729,9.83,1.375,14.554c0.12,0.876,1.565,1.85,2.605,2.277c23.772,9.804,47.084,9.598,69.761-3.392
			c0.646-0.368,1.321-0.679,1.983-1.016c0.172,0.397,0.604,0.994,0.476,1.161c-3.332,4.354-6.714,8.667-10.117,12.964
			c-0.289,0.364-0.785,0.564-1.977,1.391c0.143-2.672,0.248-4.686,0.354-6.695c-0.329-0.162-0.658-0.323-0.987-0.485
			c-0.681,1.195-1.617,2.315-1.994,3.602c-2.04,6.946-3.92,13.938-5.91,20.898c-0.362,1.269-0.978,2.464-1.957,3.61
			c-2.57-8.225,2.727-15.926,1.693-24.056c-6.815,1.108-13.524,2.2-20.693,3.366c1.494,7.298,5.113,13.336,11.314,17.562
			c4.286,2.923,5.348,4.468,4.706,9.524c-1.19,9.375-5.552,17.357-11.374,24.5c-5.6,6.867-11.591,13.429-17.613,19.935
			c-3.424,3.698-7.197,7.085-10.947,10.463c-1.147,1.035-2.741,1.577-4.131,2.345c-0.393-0.458-0.785-0.916-1.178-1.375
			c4.004-5.17,8.01-10.34,12.315-15.899c-4.797,0-9.265,0-14.02,0c0.303,1.557,0.351,3.085,0.895,4.41
			c3.107,7.574-1.265,12.914-5.735,17.799c-5.247,5.73-11.713,9.859-18.934,13.087c-8.734,3.903-17.054,8.744-25.561,13.162
			c-0.413,0.215-0.907,0.276-1.469,0.44c-1.852-2.381-0.418-4.36,1.031-5.641c2.013-1.777,4.424-3.287,6.914-4.297
			c5.021-2.036,8.621-5.396,10.999-10.182c4.711-9.48,7.412-19.479,8.074-30.507c-7.928,0-15.513-0.021-23.098,0.042
			c-0.616,0.005-1.493,0.444-1.805,0.952c-7.414,12.123-11.812,24.783-6.467,39.011c1.467,3.905,0.398,7.32-2.404,9.879
			c-2.723,2.485-5.832,4.782-9.16,6.317c-6.909,3.185-13.991,6.053-21.183,8.532c-2.521,0.868-5.79,0.925-8.329,0.123
			c-7.245-2.29-14.428-4.905-21.368-7.993c-4.617-2.053-8.835-5.043-13.124-7.782c-4.17-2.663-5.508-6.913-5.854-11.568
			c-0.12-1.617-0.226-3.264-0.068-4.869c1.114-11.371-3.43-20.994-10.107-29.479c-6.6-8.385-14.214-15.967-21.278-23.993
			c-1.614-1.833-2.747-4.082-4.197-6.07c-0.615-0.843-1.478-1.503-2.228-2.247c-0.685,0.909-1.936,1.802-1.966,2.732
			c-0.255,7.818-1.191,15.769-0.137,23.434c1.111,8.078,3.51,16.157,6.561,23.75c4.757,11.836,13.803,19.494,26.291,22.695
			c3.529,0.905,5.691,3.025,7.42,5.784c-0.243,0.446-0.485,0.894-0.728,1.338c-6.767-2.605-13.534-5.211-20.299-7.818
			c-1.231-0.476-2.545-0.811-3.673-1.462c-8.171-4.737-16.541-9.188-24.37-14.439c-5.532-3.711-11.326-7.794-15.183-13.047
			c-4.938-6.725-7.138-11.104-2.211-18.82c1.997-3.129,3.144-7.282,3.279-11.021c0.311-8.505,0.548-17.126-2.297-25.372
			c-0.277-0.805-1.524-1.732-2.387-1.804c-5.184-0.415-10.39-0.781-15.582-0.719c-1.224,0.016-3.283,1.58-3.507,2.719
			c-2.421,12.277-0.235,23.823,6.35,34.467c2.226,3.596,4.905,6.914,7.075,10.539c0.947,1.581,1.134,3.615,1.665,5.439
			c-3.862,1.067-9.461-3.907-24.864-21.878c-6.843-7.984-10.969-18.453-12.401-31.75c-2.781,0.204-5.578,0.408-9.407,0.688
			c2.186,4.502,4.1,8.44,6.145,12.651c-0.693,0.222-1.492,0.705-1.72,0.515c-3.597-3.033-8.489-4.972-9.708-10.107
			c-0.579-2.44-1.739-2.801-3.907-2.751c-5.85,0.136-11.704,0.046-18.05,0.046c0.308-5.227-1.108-10.521,2.361-15.217
			c0.572,0.615,1.145,1.229,1.717,1.846c-0.254,0.445-0.508,0.892-0.763,1.336c0,2.975,0,5.947,0,9.521
			c1.814,0,3.25,0.028,4.684-0.004c17.103-0.396,34.204-0.98,51.308-1.115c6.941-0.055,13.885,1.115,20.837,1.274
			c8.46,0.193,16.932-0.156,25.398-0.119c2.182,0.01,3.279-0.703,3.407-2.872c0.021-0.37,0.158-0.732,0.224-1.103
			c1.573-8.778,0.193-10.877-8.549-12.492c-3.434-0.635-6.929-0.931-10.396-1.388c-3.329-0.438-6.657-0.886-10.448-1.39
			c0-17.674,0-35.31,0-53.115c31.957,0,63.731,0,95.725,0c0.435,4.859,1.185,9.054,1.112,13.234
			c-0.209,11.985-0.81,23.966-1.124,35.951c-0.075,2.859-1.326,3.739-4.026,4.094c-7.052,0.922-14.044,2.295-21.091,3.259
			c-2.6,0.355-3.734,1.62-3.958,4.04c-0.081,0.869-0.152,1.74-0.232,2.611c-0.767,8.248-0.027,9.146,8.514,8.828
			c9.733-0.36,19.454-1.347,29.186-1.414c12.736-0.089,25.477,0.458,38.216,0.725c0.474,0.01,0.949-0.063,1.837-0.128
			c-0.172-2.332-0.335-4.528-0.497-6.727c0.004-2.063,0.006-4.13,0.01-6.193c0.066-1.614,0.24-3.23,0.184-4.839
			c-0.628-17.437-1.261-34.872-1.966-52.305c-0.271-6.722-0.684-13.44-1.138-20.152c-0.149-2.22-0.461-4.545-3.479-4.782
			c-0.716-0.6-1.355-1.585-2.155-1.738c-5.952-1.141-11.913-2.277-17.917-3.079c-3.336-0.445-5.317-1.494-5.062-5.281
			c0.143-2.077-0.131-4.21-0.442-6.285C311.657,348.957,312.405,346.799,316.171,346.803z"/>
		<path fill="#FEFDFD" d="M368.211,607.673c-0.539,0.29-1.447,0.482-1.553,0.886c-0.461,1.772-0.69,3.604-1.111,6.039
			c2.717,3.697,2.97,5.927,0.451,7.918c-2.561,2.025-6.369,2.233-7.98,0.414c-2.504-2.827-1.664-5.207,0.298-6.649
			c-0.297-3.002-1.233-5.613-0.511-7.627c0.477-1.326,3.347-1.794,5.144-2.646C364.701,606.562,366.456,607.117,368.211,607.673z
			 M361.873,615.884c-0.697,0.208-1.396,0.414-2.092,0.62c0,1.651-0.559,3.646,0.179,4.844c0.582,0.947,2.755,0.917,4.222,1.32
			c0.338-0.425,0.677-0.851,1.015-1.276C364.088,619.556,362.98,617.721,361.873,615.884z M362.233,613.508
			c2.498-2.606,3.199-4.646,0.646-5.91c-0.688-0.341-2.058,0.697-3.115,1.104C360.587,610.303,361.41,611.904,362.233,613.508z"/>
		<path fill="#FEFDFD" d="M285.819,606.068c6.021,0,11.613,0,17.273,0c0,1.252,0,2.792,0,4.127c-1.953-0.92-3.824-1.802-5.695-2.684
			c-0.302,0.297-0.604,0.596-0.906,0.893c1.141,4.967-2.121,10.483,2.358,15.288c-2.935,0-5.938,0-9.072,0
			c5.446-4.285,1.57-10.07,3.322-16.23c-3.384,0.872-5.707,1.472-8.355,2.154C285.089,608.475,285.514,607.074,285.819,606.068z"/>
		<path fill="#FEFDFD" d="M281.116,610.443c-0.679-0.843-1.224-2.189-2.065-2.41c-1.356-0.357-2.909,0.027-4.379,0.101
			c0.527,1.283,0.744,2.894,1.663,3.763c1.017,0.962,3.054,0.901,3.963,1.905c1.367,1.512,3.105,3.683,2.895,5.346
			c-0.216,1.706-2.342,3.576-4.092,4.552c-1.344,0.749-3.413,0.368-5.138,0.226c-2.891-0.237-2.748-2.166-2.306-3.991
			c2.004,0.952,3.864,2.248,5.895,2.624c0.985,0.185,2.29-1.354,3.449-2.11c-0.737-1.027-1.275-2.351-2.259-3.01
			c-1.422-0.953-3.267-1.258-4.752-2.14c-2.819-1.674-3.501-5.012-1.706-7.417c1.543-2.066,7.431-3.073,8.902-1.293
			c0.72,0.871,0.659,2.388,0.952,3.612C281.796,610.281,281.456,610.362,281.116,610.443z"/>
		<path fill="#FEFDFD" d="M336.247,616.381c-3.087,0.988-5.19,0.438-6.468-2.23c-1.338-2.795-0.021-6.436,2.658-7.711
			c2.83-1.349,6.129-0.199,7.649,2.664c3.354,6.314-1.424,14.521-9.164,14.664c4.137-1.696,6.344-4.696,6.411-8.951
			c0.033-2.096-0.188-4.221-0.573-6.28c-0.117-0.627-1.174-1.501-1.793-1.495c-0.645,0.007-1.521,0.813-1.875,1.492
			C331.695,611.218,332.968,614.624,336.247,616.381z"/>
		<path fill="#FEFDFD" d="M257.426,607.512c-0.107,2.082-0.214,4.165-0.376,7.336c2.911-0.93,5.173-1.653,7.406-2.366
			c0,1.331,0,3.342,0,4.686c-2.103-0.703-4.375-1.461-6.647-2.22c-0.423,0.397-0.847,0.796-1.27,1.193
			c0.772,2.16,1.544,4.319,2.314,6.479c-0.01,0.382-0.019,0.765-0.026,1.146c-1.935,0-3.868,0-5.647,0
			c0-4.609,0.135-8.901-0.09-13.176c-0.06-1.148-1.214-2.241-1.866-3.358c0.024-0.31,0.047-0.619,0.07-0.929
			c1.971,0.035,3.941,0.07,5.912,0.105C257.277,606.777,257.351,607.145,257.426,607.512z"/>
		<path fill="#FEFDFD" d="M347.697,608.186c-0.419,4.211-0.973,8.156-1.085,12.113c-0.027,0.941,1.415,1.924,2.183,2.889
			c0.741-1.02,1.962-1.969,2.123-3.072c0.354-2.412,0.626-5.117-3.344-5.717c0.346-0.444,0.689-0.891,1.035-1.336
			c1.643,0.771,3.845,1.125,4.803,2.407c1.669,2.234,1.723,5.447-0.657,7.043c-1.729,1.158-4.923,1.626-6.751,0.809
			c-3.1-1.39-3.706-4.813-3.125-8.089C343.455,611.984,344.795,609.183,347.697,608.186z"/>
		<path display="none" fill="#E3D893" d="M318.849,623.805c5.068-4.238,1.735-9.391,3.122-14.099
			c-1.543,0.305-2.639,0.521-3.731,0.737c-0.107-0.185-0.215-0.367-0.322-0.551c1.568-1.289,2.992-2.843,4.741-3.801
			c1.845-1.009,2.7,0.1,2.65,2.076c-0.082,3.354-0.237,6.719-0.061,10.062c0.098,1.829,0.816,3.628,1.288,5.572
			C324.578,623.805,321.947,623.805,318.849,623.805z"/>
		<path display="none" fill="#E3D893" d="M258.826,623.768c0.008-0.383,0.017-0.766,0.026-1.146
			c3.376-0.518,7.411,0.679,8.992-4.489c0.282,0.32,0.563,0.642,0.846,0.961c-0.245,1.578-0.491,3.155-0.792,5.086
			C264.69,624.032,261.758,623.9,258.826,623.768z"/>
		<path display="none" fill="#E3D893" d="M257.426,607.512c-0.075-0.367-0.148-0.733-0.222-1.102
			c3.163-0.184,6.325-0.365,9.487-0.548c0.03,0.55,0.06,1.1,0.09,1.648C263.662,607.512,260.544,607.512,257.426,607.512z"/>
		<path fill="#E3D893" d="M250.519,622.941c0.892-0.141,1.784-0.278,2.675-0.417c0.069,0.364,0.138,0.729,0.206,1.096
			c-0.929,0.165-1.859,0.33-2.79,0.495C250.58,623.723,250.55,623.332,250.519,622.941z"/>
		<path fill="#E3D893" d="M251.292,606.305c-0.023,0.31-0.045,0.619-0.07,0.929c-0.203-0.444-0.405-0.89-0.605-1.335
			c0.002-0.002-0.081,0.068-0.079,0.066C250.791,606.078,251.042,606.191,251.292,606.305z"/>
		<path fill="#E13C2B" d="M316.171,346.803c-3.766-0.004-4.514,2.153-4.021,5.399c0.312,2.074,0.585,4.208,0.442,6.285
			c-0.257,3.787,1.726,4.836,5.062,5.281c6.004,0.802,11.965,1.938,17.917,3.079c0.8,0.153,1.439,1.139,2.153,1.74
			c0.036,4.21,0.068,8.42,0.111,12.63c0.208,20.818,0.468,41.637,0.598,62.456c0.036,5.794-0.139,5.795,5.69,6.989
			c-0.004,2.063-0.006,4.13-0.01,6.194c-18.108-0.063-36.218-0.183-54.325-0.15c-4.364,0.009-8.726,0.542-13.092,0.777
			c-0.994,0.054-2-0.123-3.001-0.194c-0.069-0.407-0.139-0.813-0.208-1.221c1.352-0.493,2.666-1.203,4.061-1.443
			c7.128-1.229,14.297-2.228,21.397-3.593c1.21-0.232,2.962-1.746,3.102-2.842c2.597-20.394,2.229-40.84,0.823-61.84
			c-5.615-0.231-11.186-0.604-16.761-0.662c-20.743-0.216-41.487-0.36-62.231-0.463c-7.862-0.039-15.74-0.17-23.582,0.257
			c-6.39,0.349-6.696,0.688-6.756,7.134c-0.163,17.481-0.127,34.966,0.056,52.448c0.062,5.846,1.017,6.53,6.729,7.255
			c6.067,0.769,12.146,1.467,18.199,2.335c1.747,0.251,3.424,0.984,5.133,1.498c-0.105,0.382-0.209,0.765-0.314,1.146
			c-30.621,0-61.241,0-91.861,0c-0.105-0.227-0.21-0.453-0.316-0.68c1.059-0.424,2.083-1.039,3.183-1.238
			c6.627-1.206,13.277-2.285,19.905-3.486c1.32-0.239,2.577-0.831,4.554-1.49c0.408-14.732,0.892-29.54,1.208-44.353
			c0.263-12.363,0.457-24.73,0.447-37.098c-0.01-13.233-0.202-26.468-0.519-39.697c-0.086-3.581-0.886-7.148-1.407-10.715
			c-0.518-3.541-2.777-4.881-6.184-5.203c-6.212-0.588-12.407-1.385-18.59-2.229c-0.879-0.12-1.656-1-2.479-1.528
			c0.852-0.452,1.714-1.312,2.556-1.293c8.985,0.203,17.975,0.39,26.947,0.884c17.614,0.97,35.2,1.157,52.77-0.776
			c2.594-0.285,5.247-0.164,7.863-0.047c0.656,0.029,1.28,0.775,1.917,1.192c-0.628,0.452-1.212,1.213-1.891,1.309
			c-6.428,0.911-12.864,1.789-19.315,2.517c-6.591,0.743-8.626,3.567-8.498,10.129c0.242,12.354-0.045,24.72-0.066,37.08
			c-0.008,4.616,0.156,9.23,0.157,13.847c0,2.441,0.939,3.61,3.532,3.668c9.609,0.219,19.215,0.812,28.823,0.833
			c21.367,0.048,42.735-0.127,64.102-0.306c3.484-0.029,6.966-0.525,10.445-0.846c1.984-0.183,3.138-1.036,3.1-3.323
			c-0.288-16.972-0.512-33.946-0.726-50.918c-0.065-5.243-2.634-8.338-7.712-9.546c-5.582-1.328-11.135-2.778-16.7-4.181
			c-1.14-0.287-2.273-0.6-3.286-1.307c6.778,0,13.587-0.415,20.329,0.078c19.866,1.453,39.68,1.011,59.499-0.661
			c2.481-0.209,4.998-0.286,7.477-0.107c1.13,0.081,2.201,0.934,3.3,1.436c-0.999,0.564-1.937,1.388-3.01,1.651
			c-6.416,1.571-12.857,3.04-19.303,4.489c-4.04,0.909-5.275,3.807-5.355,7.468c-0.125,5.738-0.143,11.479-0.222,17.221
			c-0.015,1.096-0.105,2.19-0.16,3.229c-7.215,0-14.147,0-21.218,0C316.497,344.355,316.334,345.579,316.171,346.803z"/>
		<path fill="#E13C2B" d="M406.777,424.04c5.096,0,10.27,0.571,15.275-0.1c21.405-2.869,32.822-20.655,27.557-42.604
			c-3.165-13.188-11.082-21.799-24.574-24.857c-8.878-2.012-17.826-2.458-26.8-0.958c-6.854,1.146-10.695,3.371-10.542,12.516
			c0.637,37.848,0.812,75.702,1.272,113.552c0.162,13.256,0.316,13.204,13.339,14.158c5.102,0.374,10.191,0.945,15.261,1.631
			c0.877,0.119,1.615,1.261,2.419,1.93c-0.864,0.634-1.746,1.841-2.588,1.812c-8.858-0.3-17.709-0.827-26.564-1.233
			c-18.621-0.854-37.215-0.675-55.759,1.504c-1.96,0.23-3.972,0.031-5.959,0.031c-0.095-0.426-0.188-0.852-0.282-1.278
			c1.223-0.565,2.398-1.277,3.672-1.677c5.239-1.639,10.581-2.977,15.746-4.814c6.139-2.185,7.521-4.252,7.487-10.785
			c-0.065-12.62-0.099-25.246-0.51-37.856c-0.786-24.097-1.846-48.183-2.76-72.274c-0.43-11.323-4.243-15.753-15.353-17.604
			c-3.45-0.576-6.943-0.927-10.356-1.663c-1.221-0.263-2.262-1.359-3.385-2.076c1.271-0.399,2.551-1.175,3.81-1.14
			c13.231,0.366,26.463,1.283,39.689,1.222c19.605-0.091,39.209-0.95,58.817-1.288c11.53-0.198,23,0.725,34.019,4.44
			c15.564,5.252,25.923,15.847,28.654,32.072c2.441,14.51-3.753,26.485-15.3,35.256c-16.169,12.278-34.653,13.703-53.902,10.172
			c-3.418-0.627-6.794-1.73-10.021-3.036c-1.35-0.545-2.258-2.187-3.365-3.329C406.109,425.188,406.443,424.613,406.777,424.04z"/>
		<path fill="#E3D893" d="M404.083,488.904c2.229-6.726,4.456-13.45,6.69-20.174c1.536-4.625,4-9.104,1.064-14.946
			c8.869,5.383,15.161,23.973,13.136,36.099c-5.866-0.161-11.733-0.304-17.6-0.504C406.273,489.342,405.18,489.068,404.083,488.904z
			"/>
		<path fill="#E3D893" d="M430.787,413.293c-1.422-4.893-2.844-9.785-4.631-15.939c4.336,2.946,7.967,5.281,11.4,7.875
			c0.594,0.447,0.352,1.999,0.495,3.039C436.643,411.405,434.276,413.162,430.787,413.293z"/>
		<path fill="#E3D893" d="M123.987,455.184c0.254-0.444,0.509-0.891,0.763-1.336C124.496,454.293,124.241,454.738,123.987,455.184z"
			/>
		<path fill="#FEFDFD" d="M344.123,450.663c-5.829-1.194-5.654-1.195-5.69-6.989c-0.13-20.818-0.39-41.638-0.598-62.456
			c-0.043-4.21-0.075-8.419-0.111-12.63c3.02,0.235,3.329,2.561,3.479,4.78c0.454,6.712,0.865,13.43,1.138,20.152
			c0.705,17.432,1.337,34.869,1.965,52.304C344.363,447.433,344.189,449.049,344.123,450.663z"/>
		<path fill="#201B17" d="M361.873,615.884c1.107,1.837,2.215,3.672,3.322,5.508c-0.338,0.427-0.677,0.853-1.015,1.276
			c-1.467-0.403-3.64-0.373-4.222-1.32c-0.736-1.197-0.179-3.191-0.179-4.844C360.479,616.298,361.176,616.092,361.873,615.884z"/>
		<path fill="#201B17" d="M362.233,613.508c-0.823-1.604-1.646-3.205-2.471-4.807c1.059-0.406,2.428-1.444,3.115-1.104
			C365.434,608.861,364.731,610.9,362.233,613.508z"/>
	</g>
</g>
</svg>
